<?xml version="1.0" standalone="no"?>
<!DOCTYPE svg PUBLIC "-//W3C//DTD SVG 20010904//EN"
 "http://www.w3.org/TR/2001/REC-SVG-20010904/DTD/svg10.dtd">
<svg version="1.0" xmlns="http://www.w3.org/2000/svg"
 width="700.000000pt" height="700.000000pt" viewBox="0 0 700.000000 700.000000"
 preserveAspectRatio="xMidYMid meet">
<metadata>
Created by potrace 1.14, written by Peter Selinger 2001-2017
</metadata>
<g transform="translate(0.000000,700.000000) scale(0.100000,-0.100000)"
fill="#000000" stroke="none">
<path d="M4982 6986 c-27 -13 -100 -72 -267 -217 -16 -15 -73 -63 -125 -109
-52 -45 -106 -92 -120 -104 -14 -12 -90 -78 -170 -146 -80 -69 -150 -129 -156
-135 -6 -5 -35 -31 -65 -57 -201 -172 -375 -323 -386 -334 -8 -7 -35 -30 -61
-51 -26 -21 -51 -43 -57 -49 -5 -6 -75 -67 -155 -135 -147 -126 -194 -166
-214 -184 -6 -6 -40 -35 -76 -66 -36 -31 -137 -118 -226 -195 -88 -76 -187
-161 -219 -189 -32 -27 -63 -54 -69 -60 -14 -12 -155 -134 -441 -380 -121
-104 -222 -192 -225 -195 -4 -5 -309 -267 -389 -335 -13 -11 -36 -31 -51 -45
-15 -14 -52 -45 -81 -70 -29 -25 -108 -92 -174 -150 -67 -58 -148 -127 -180
-155 -68 -59 -80 -69 -293 -255 -165 -143 -188 -171 -196 -241 -9 -89 53 -178
139 -201 40 -11 279 -13 1223 -13 644 1 1172 -2 1172 -5 0 -3 -8 -21 -18 -40
-11 -19 -74 -143 -142 -275 -68 -132 -159 -310 -203 -395 -44 -85 -120 -234
-170 -330 -49 -96 -128 -249 -174 -340 -47 -91 -127 -246 -178 -345 -51 -99
-130 -252 -175 -340 -341 -659 -333 -639 -291 -730 43 -96 171 -143 259 -96
20 10 145 112 162 130 3 4 68 60 145 126 77 66 142 122 145 125 3 3 52 45 110
95 58 49 107 92 110 95 3 3 37 32 75 65 39 33 86 74 105 92 19 17 49 42 65 54
17 13 32 26 35 29 3 3 39 35 80 70 41 36 77 67 80 70 3 3 37 33 75 66 98 84
126 108 139 119 18 16 369 318 395 340 13 11 34 29 45 40 12 11 51 45 86 75
36 30 67 57 70 60 3 3 68 59 145 125 77 66 142 122 145 125 3 3 36 32 75 65
105 90 127 109 139 120 6 6 58 51 116 100 58 49 119 102 135 116 30 27 119
103 165 143 153 132 411 354 435 376 17 14 114 98 215 186 189 162 234 201
254 219 6 6 58 50 116 100 58 49 107 92 110 95 3 3 36 32 75 65 336 288 339
292 338 386 -1 61 -20 104 -65 146 -51 48 -48 48 -1301 47 -824 0 -1174 3
-1168 10 5 6 75 142 156 301 81 160 173 340 205 400 31 61 106 205 165 320 59
116 140 273 180 350 40 77 119 230 175 340 57 110 138 268 180 350 328 636
326 631 300 709 -14 45 -53 92 -91 111 -43 23 -128 28 -167 11z"/>
</g>
</svg>
