<svg aria-hidden="true" viewBox="0 0 311.9 52.6" xmlns="http://www.w3.org/2000/svg" fill="currentColor"><path d="M13.7 0v6.2c2.2.1 4.5.8 7 2.1L23 2.4A23.3 23.3 0 0013.7 0zm-3.2.1C8.8.3 7.3.6 6 1.1A9.3 9.3 0 002 4.6 8 8 0 00.5 9c0 2 .5 3.5 1.5 4.6a9 9 0 003.6 2.5l5.3 1.5c2 .4 3.3.8 4.2 1.2.9.4 1.3 1 1.3 1.8 0 1.2-1 1.9-2.7 2.1v6.3c1.8-.2 3.5-.6 5-1.2 1.8-.8 3.2-1.9 4.1-3.3 1-1.3 1.4-2.8 1.4-4.5 0-2-.5-3.5-1.5-4.6-1-1.2-2.3-2-3.7-2.5-1.4-.5-3.1-1-5.3-1.5-1.9-.4-3.2-.8-4-1.1s-1.4-1-1.4-1.7.4-1.4 1.1-1.8l1-.5zM2.6 20.2L0 26c1.3 1 3 1.7 5.2 2.3 1.7.4 3.5.7 5.3.8v-6.2a17.2 17.2 0 01-7.9-2.7zM36.7 6.5q5.4 0 8.3 2.5 2.8 2.4 2.8 7.5v12h-7v-2.7q-1.7 3.1-6.5 3.1-2.5 0-4.3-.9-1.9-.8-2.8-2.3-1-1.5-1-3.5 0-3 2.4-4.7 2.4-1.7 7.3-1.7h4.3q-.2-3.5-4.6-3.5-1.5 0-3.1.5t-2.8 1.4L27.2 9q1.8-1.2 4.3-1.8 2.6-.7 5.2-.7zm-.2 17.6q1.3 0 2.3-.6t1.4-1.9v-1.9H37q-3.3 0-3.3 2.2 0 1 .8 1.6.7.6 2 .6zM80.9 6.5q4 0 6.3 2.4 2.5 2.4 2.5 7.3v12.4H82V17.4q0-2.3-.8-3.4-.9-1-2.4-1-1.8 0-2.8 1.2-1 1.2-1 3.6v10.8h-7.6V17.4q0-4.4-3.3-4.4-1.8 0-2.8 1.2-1 1.2-1 3.6v10.8h-7.7V6.9H60v2.3q1.2-1.4 2.8-2 1.7-.7 3.7-.7 2.2 0 4 .9 1.8.8 3 2.5 1.2-1.6 3.2-2.5 2-.9 4.3-.9zM122.7 6.5q4 0 6.4 2.4 2.4 2.4 2.4 7.3v12.4h-7.6V17.4q0-2.3-1-3.4-.8-1-2.3-1-1.7 0-2.8 1.2-1 1.2-1 3.6v10.8h-7.6V17.4q0-4.4-3.3-4.4-1.8 0-2.8 1.2-1 1.2-1 3.6v10.8h-7.6V6.9h7.2v2.3q1.2-1.4 2.8-2 1.7-.7 3.7-.7 2.3 0 4 .9 1.9.8 3 2.5 1.3-1.6 3.2-2.5 2-.9 4.3-.9zM158.7 6.9l-9.3 22.5q-1.7 4-4 5.6-2.4 1.7-5.8 1.7-1.7 0-3.5-.6-1.7-.5-2.8-1.4l2.7-5.3q.6.6 1.5 1 .9.3 1.8.3 1.1 0 1.8-.5.7-.4 1.2-1.4l-9.3-22h7.8l5.3 13.3L151.5 7zM172.7.5v18.2h7.3v-4.6l7.2 11.7h3.5l7.2-12v5h7.3V.4h-6.5L189 16.7 179.2.5zm0 21.4v6.7h7.3v-6.7zm25.3 0v6.7h7.3v-6.7z"/><g><path d="M221.6 29q-3.6 0-6.4-1.5-2.9-1.5-4.5-4-1.5-2.6-1.5-5.8t1.5-5.8q1.6-2.6 4.5-4 2.8-1.4 6.4-1.4 3.7 0 6.4 1.6t3.8 4.4l-6 3q-1.4-3-4.2-3-2 0-3.4 1.4t-1.4 3.8q0 2.4 1.4 3.8 1.3 1.4 3.4 1.4 2.8 0 4.3-3l5.9 3q-1.1 2.9-3.8 4.5-2.7 1.5-6.4 1.5zM245.8 18.4l-3 3.2v7H235V.6h7.9v11.6L253.7.5h8.7L251 13l12 15.6h-9.2zM273.6 6.5q5.4 0 8.2 2.5 2.8 2.4 2.8 7.5v12h-7v-2.7q-1.7 3.1-6.4 3.1-2.6 0-4.4-.9-1.8-.8-2.8-2.3-1-1.5-1-3.5 0-3 2.4-4.7 2.4-1.7 7.3-1.7h4.3q-.2-3.5-4.6-3.5-1.5 0-3.1.5t-2.7 1.4L264 9q1.8-1.2 4.4-1.8 2.6-.7 5.2-.7zm-.3 17.6q1.3 0 2.3-.6 1-.7 1.4-1.9v-1.9h-3.2q-3.4 0-3.4 2.2 0 1 .8 1.6t2 .6zM311.9 6.9l-9.4 22.5q-1.6 4-4 5.6-2.3 1.7-5.7 1.7-1.8 0-3.5-.6-1.7-.5-2.8-1.4l2.6-5.3q.7.6 1.5 1 1 .3 1.9.3 1 0 1.7-.5.8-.4 1.2-1.4l-9.2-22h7.8l5.3 13.3L304.7 7z"/></g><g stroke-width=".3"><path d="M8.7 47.5l-1 2.6-.8 2.4h-1q-.6-1.7-1-3.5L4 45h1.1l.3 1.7.4 1.7.3 1.5.4 1.3.9-2.5.9-2.8h.9l.9 2.8.9 2.5.3-1.3.4-1.5.3-1.7.3-1.6h1q-.3 2.1-.8 4l-1 3.4h-1l-1-2.4-.8-2.6zM18.6 52.5V45H23v.8h-3.5v2.2h3.1v1h-3v2.5h3.7v.9zM30.7 52.5H29q-.3 0-.4-.2v-7.1l.4-.1h.6l.5-.1h1.7l1 .4.6.6q.2.4.2 1 0 .5-.3 1l-.7.5q.6.2 1 .6.4.4.4 1.2 0 1.1-.9 1.7-.8.5-2.5.5zm-1-3.5v2.6h1.9q.4 0 .7-.2l.5-.4q.2-.3.2-.7l-.1-.6-.4-.4q-.3-.2-.7-.2H31zm0-.8h1.8q.3 0 .6-.3l.4-.3.1-.6-.1-.5-.4-.4-.6-.2H29.7zM41.3 51.7q1.6 0 1.6-1 0-.4-.2-.7l-.4-.4-.5-.3-.7-.2-.8-.3-.6-.5-.4-.5-.2-.8q0-1 .7-1.6.7-.5 1.8-.5l1.2.1.9.4-.4.8-.6-.3-1-.1H41l-.5.3q-.2 0-.3.3v.9l.4.4.4.3.7.2.9.4q.4.2.6.5.3.2.5.6.2.4.2 1 0 .9-.7 1.4-.8.5-2 .5h-.9l-.6-.2-.5-.1-.3-.2.3-.9.7.4q.5.2 1.3.1zM49.2 45h1v7.5h-1zM61 45v1h-2.3v6.5h-1V46h-2.4v-1zM66.1 52.5V45h4.5v.8h-3.4v2.2h3v1h-3v2.5h3.7v.9zM82.3 50.5l.1-.7.3-.6.6-.5.5-.3q-.7-.8-.7-1.7l.1-.7q.1-.4.4-.6l.6-.4.8-.1.7.1.6.4.3.5.2.6q0 .4-.2.7 0 .3-.3.5l-.5.5-.5.3 1.7 1.8q.4-.7.5-1.5l.8.1-.2 1-.5 1 .6.8.6.8h-1l-.4-.5-.4-.4-1 .7q-.6.3-1.3.3-.7 0-1.2-.2l-.7-.5q-.3-.3-.4-.7t-.1-.7zm1 0v.4l.3.4.4.3.7.1 1-.2q.4-.1.8-.5l-2.1-2.1-.4.2-.4.3-.2.5-.1.6zm2.6-4q0-.3-.3-.6-.2-.2-.6-.2-.5 0-.8.3-.2.2-.2.7 0 .7.7 1.3l.5-.2.3-.4q.2-.1.3-.4v-.5zM105.2 52.5l-.3-1-.4-1h-3.3l-.7 2h-1l.7-2.2.8-2 .7-1.6.7-1.6h1l.7 1.6.7 1.7.8 1.9.8 2.2zm-1-2.8l-.6-1.8-.7-1.7-.7 1.7-.7 1.8zM113.3 45q1.6 0 2.4.6.9.6.9 1.7 0 .7-.3 1.1-.2.5-.6.8l-1 .4-1.5.1h-.8v2.8h-1v-7.3l1-.2h1zm.1.9h-1v3h.8l1-.1.6-.3q.3-.1.5-.4.2-.3.2-.8 0-.4-.2-.7l-.5-.4q-.2-.2-.6-.2l-.8-.1zM123.8 45q1.6 0 2.4.6.9.6.9 1.7 0 .7-.3 1.1-.2.5-.6.8l-1 .4-1.5.1h-.8v2.8h-1v-7.3l1-.2h1zm.1.9h-1v3h.8l1-.1.6-.3q.3-.1.5-.4.2-.3.2-.8 0-.4-.2-.7l-.5-.4q-.2-.2-.6-.2l-.8-.1zM136.8 51.6v.9h-4.5V45h1v6.5zM141.9 45h1v7.5h-1zM152 52.6q-.8 0-1.5-.2t-1-.8-.8-1.2q-.2-.7-.2-1.6 0-1 .2-1.7.3-.7.8-1.2t1.1-.8 1.4-.2h.8l.7.2.4.2.2.1-.3.9-.2-.2-.4-.1-.6-.1-.5-.1q-.6 0-1 .2-.5.2-.9.6t-.5 1l-.1 1.2.1 1.2.5.9q.3.4.8.6.4.2 1 .2l1.2-.1.7-.3.3.9h-.3q-.2.2-.5.2l-.6.2h-.9zM164.6 52.5l-.4-1-.3-1h-3.4l-.6 2h-1.1l.8-2.2.7-2 .7-1.6.8-1.6h1l.7 1.6.7 1.7.7 1.9.8 2.2zm-1-2.8l-.7-1.8-.7-1.7-.7 1.7-.7 1.8zM175 45v1h-2.4v6.5h-1V46h-2.3v-1zM180 45h1v7.5h-1zM186.6 48.8q0-1 .3-1.7t.8-1.2q.5-.5 1.1-.8l1.4-.2q.7 0 1.3.2.7.3 1.1.8.5.5.8 1.2.3.7.3 1.7t-.3 1.6q-.3.8-.8 1.3l-1 .7-1.4.2-1.4-.2-1.1-.7q-.5-.5-.8-1.3-.3-.7-.3-1.6zm1.1 0l.2 1.2.5 1 .7.5 1 .2q.6 0 1-.2.5-.2.8-.6.4-.4.5-1 .2-.5.2-1.1 0-.7-.2-1.3-.1-.5-.5-.9-.3-.4-.7-.6l-1-.2q-.6 0-1 .2-.5.2-.8.6l-.5 1q-.2.5-.2 1.2zM204.3 52.5l-.5-1-.7-1-.7-1-.8-1-.7-1-.7-.8v5.8h-1V45h.9l1 1.2 1.2 1.5 1 1.4.9 1.3v-5.4h1v7.4zM223.6 48.8q0 1-.3 1.6-.3.7-.9 1.2-.5.5-1.3.7-.7.2-1.7.2h-1l-1-.2v-7.1l1-.2h1q1 0 1.7.2.8.3 1.3.7.6.5.9 1.2.3.7.3 1.7zm-4 2.8q1.4 0 2.1-.7.8-.8.8-2.1 0-1.4-.8-2.1-.7-.8-2.2-.8h-1v5.7h1zM229 52.5V45h4.6v.8h-3.5v2.2h3.1v1h-3v2.5h3.7v.9zM245.2 45l-.8 2.2-.7 2-.7 1.7-.7 1.6h-1l-.7-1.6-.7-1.8-.8-1.9-.7-2.1h1.1l1.1 3.2 1.2 3 1.1-3 1.2-3.2zM250.2 52.5V45h4.5v.8h-3.5v2.2h3.1v1h-3v2.5h3.7v.9zM264.7 51.6v.9h-4.4V45h1v6.5zM269 48.8q0-1 .3-1.7t.8-1.2q.5-.5 1.1-.8l1.4-.2 1.4.2q.6.3 1 .8.6.5.8 1.2.3.7.3 1.7t-.3 1.6q-.2.8-.7 1.3l-1.1.7-1.4.2-1.4-.2-1.1-.7q-.5-.5-.8-1.3-.2-.7-.2-1.6zm1.1 0l.2 1.2.5 1 .8.5q.4.2 1 .2t1-.2q.5-.2.8-.6l.5-1 .1-1.1-.1-1.3-.5-.9q-.3-.4-.8-.6-.4-.2-1-.2t-1 .2q-.5.2-.8.6l-.5 1q-.2.5-.2 1.2zM283.6 45q1.6 0 2.4.6.9.6.9 1.7 0 .7-.3 1.1-.2.5-.6.8l-1 .4-1.5.1h-.8v2.8h-1v-7.3l1-.2h1zm.1.9h-1v3h.8l1-.1.7-.3q.3-.1.4-.4.2-.3.2-.8 0-.4-.2-.7l-.4-.4q-.3-.2-.7-.2l-.8-.1zM292.2 52.5V45h4.5v.8h-3.5v2.2h3.1v1h-3.1v2.5h3.7v.9zM305.9 49.4l.4.5.5.8.6.9.5.9h-1.2l-.4-.9-.5-.7-.6-.8-.4-.5h-1.6v2.9h-1v-7.3l1-.2h1q1.6 0 2.4.6.8.6.8 1.7 0 .8-.4 1.3t-1.1.8zm-1.6-3.5h-1v2.8h1.7q.4 0 .7-.2l.5-.5.1-.7-.1-.7q-.2-.3-.5-.4-.2-.2-.6-.2l-.8-.1z"/></g></svg>